<?xml version="1.0" encoding="utf-8"?>
<!-- Generator: Adobe Illustrator 20.1.0, SVG Export Plug-In . SVG Version: 6.00 Build 0)  -->
<svg version="1.1" id="Layer_1" xmlns="http://www.w3.org/2000/svg" xmlns:xlink="http://www.w3.org/1999/xlink" x="0px" y="0px"
	 viewBox="0 0 59 48.3" style="enable-background:new 0 0 59 48.3;" xml:space="preserve">
<style type="text/css">
	.st0{fill:#212221;stroke:#FFFFFF;stroke-width:0.5;stroke-miterlimit:10;}
</style>
<g>
	<path class="st0" d="M11.5,4.5H38v4.8h1.4V3.8c0-0.4-0.3-0.7-0.7-0.7H10.8c-0.4,0-0.7,0.3-0.7,0.7v39.4c0,0.4,0.3,0.7,0.7,0.7h21.8
		v-1.4H11.5V4.5z"/>
	<path class="st0" d="M39.9,17.6L38,13.1c-0.1-0.3-0.3-0.4-0.6-0.4c-0.3,0-0.5,0.1-0.6,0.4l-1.9,4.5c-0.1,0.1-0.2,0.3-0.2,0.5v21.1
		v4.1c0,0.4,0.3,0.7,0.7,0.7h4.1c0.4,0,0.7-0.3,0.7-0.7v-4.1V18.1C40.1,17.9,40,17.7,39.9,17.6 M36,18.7h2.7v19.7H36V18.7z M37.3,15
		l1,2.4h-2L37.3,15z M38.7,42.5H36v-2.7h2.7V42.5z"/>
	<path class="st0" d="M50.3,28.9h-7.5c-0.4,0-0.7,0.3-0.7,0.7v13.6c0,0.4,0.3,0.7,0.7,0.7h7.5c0.4,0,0.7-0.3,0.7-0.7V29.6
		C50.9,29.2,50.7,28.9,50.3,28.9 M49.6,33.7h-6.1v-3.4h6.1V33.7z M43.5,35.1h6.1v7.5h-6.1V35.1z"/>
	<path class="st0" d="M28.5,10.6c0-2.2-1.8-4.1-4.1-4.1c-2.2,0-4.1,1.8-4.1,4.1c0,2.2,1.8,4.1,4.1,4.1
		C26.7,14.7,28.5,12.8,28.5,10.6 M21.7,10.6c0-1.5,1.2-2.7,2.7-2.7c1.5,0,2.7,1.2,2.7,2.7c0,1.5-1.2,2.7-2.7,2.7
		C22.9,13.3,21.7,12.1,21.7,10.6"/>
	<rect x="20.3" y="16.7" class="st0" width="8.2" height="1.4"/>
	<rect x="20.3" y="20.1" class="st0" width="8.2" height="1.4"/>
	<rect x="14.2" y="24.2" class="st0" width="10.2" height="1.4"/>
	<rect x="14.2" y="27.6" class="st0" width="17.7" height="1.4"/>
	<rect x="14.2" y="31" class="st0" width="17.7" height="1.4"/>
	<rect x="14.2" y="34.4" class="st0" width="5.4" height="1.4"/>
	<rect x="14.2" y="37.8" class="st0" width="7.5" height="1.4"/>
	<rect x="24.4" y="34.4" class="st0" width="5.4" height="1.4"/>
	<rect x="24.4" y="37.8" class="st0" width="7.5" height="1.4"/>
</g>
</svg>
