<?xml version="1.0" encoding="utf-8"?>
<!-- Generator: Adobe Illustrator 20.1.0, SVG Export Plug-In . SVG Version: 6.00 Build 0)  -->
<svg version="1.1" id="Layer_1" xmlns="http://www.w3.org/2000/svg" xmlns:xlink="http://www.w3.org/1999/xlink" x="0px" y="0px"
	 viewBox="0 0 59 48.3" style="enable-background:new 0 0 59 48.3;" xml:space="preserve">
<style type="text/css">
	.st0{fill:none;stroke:#212221;stroke-width:1.1;stroke-miterlimit:10;}
</style>
<path class="st0" d="M49.2,17.1c-1.5,0-2.8,1.2-2.8,2.7c0,1.5,1.2,2.7,2.8,2.7c1.5,0,2.7-1.2,2.7-2.7C52,18.3,50.8,17.1,49.2,17.1z
	 M9.7,17.1c-1.5,0-2.8,1.2-2.8,2.7c0,1.5,1.2,2.7,2.8,2.7c1.5,0,2.7-1.2,2.7-2.7C12.5,18.3,11.2,17.1,9.7,17.1z M41.1,12.1
	c-2.3,0-4.1,1.8-4.1,4.1c0,2.3,1.8,4.1,4.1,4.1c2.3,0,4.1-1.8,4.1-4.1C45.2,13.9,43.3,12.1,41.1,12.1z M53.8,36.9h-4.7v-8.6
	c0-1.5-0.4-2.8-1.1-4c0.4-0.1,0.8-0.2,1.3-0.2c2.5,0,4.5,2,4.5,4.5V36.9z M17.9,12.1c-2.3,0-4.1,1.8-4.1,4.1c0,2.3,1.8,4.1,4.1,4.1
	c2.3,0,4.1-1.8,4.1-4.1C22,13.9,20.2,12.1,17.9,12.1z M9.7,24.1c0.4,0,0.9,0.1,1.3,0.2c-0.7,1.2-1.1,2.6-1.1,4v8.6H5.2v-8.3
	C5.2,26.2,7.2,24.1,9.7,24.1z M29.5,3.9c-3.3,0-6,2.7-6,6c0,3.3,2.7,6.1,6,6.1s6.1-2.7,6.1-6.1C35.5,6.6,32.8,3.9,29.5,3.9z
	 M47.6,40.1h-7.1v-13c0-1.8-0.5-3.5-1.2-5c0.6-0.2,1.2-0.3,1.8-0.3c3.6,0,6.5,2.9,6.5,6.5V40.1z M18.5,27.1v13h-7.1V28.4
	c0-3.6,2.9-6.5,6.5-6.5c0.6,0,1.2,0.1,1.8,0.3C19,23.6,18.5,25.3,18.5,27.1z M20,43.9h19V27.1c0-5.2-4.3-9.5-9.5-9.5
	c-5.2,0-9.5,4.3-9.5,9.5V43.9z"/>
</svg>
