<?xml version="1.0" encoding="utf-8"?>
<!-- Generator: Adobe Illustrator 21.0.0, SVG Export Plug-In . SVG Version: 6.00 Build 0)  -->
<svg version="1.1" id="Layer_1" xmlns="http://www.w3.org/2000/svg" xmlns:xlink="http://www.w3.org/1999/xlink" x="0px" y="0px"
	 viewBox="0 0 18 16" style="enable-background:new 0 0 18 16;" xml:space="preserve">
<style type="text/css">
	.st0{fill-rule:evenodd;clip-rule:evenodd;fill:#212221;}
</style>
<g>
	<path class="st0" d="M15.3,4.9H2.7v8.5h12.6V4.9z M2.3,4.6L2.3,4.6V2.4h13.4v2.2v0.3v8.8H2.3V4.9V4.6z M15.3,4.6L15.3,4.6V2.7H2.7
		v1.9H15.3z M3.5,5.7L3.5,5.7c-0.1-0.1-0.1-0.2,0-0.3c0.1-0.1,0.2-0.1,0.3,0l1.2,1C5,6.5,5,6.6,4.9,6.7v0l-1.2,1
		c-0.1,0.1-0.2,0.1-0.3,0c-0.1-0.1,0-0.2,0-0.3l1-0.8L3.5,5.7z M5,7.7L5,7.7c-0.1,0-0.2-0.1-0.2-0.2c0-0.1,0.1-0.2,0.2-0.2h1.5
		c0.1,0,0.2,0.1,0.2,0.2c0,0.1-0.1,0.2-0.2,0.2H5z M3.6,3.5L3.6,3.5c0.1,0,0.1,0.1,0.1,0.1c0,0.1-0.1,0.1-0.1,0.1
		c-0.1,0-0.2-0.1-0.2-0.1C3.5,3.6,3.6,3.5,3.6,3.5L3.6,3.5z M3.6,3.1L3.6,3.1c0.3,0,0.5,0.2,0.5,0.5c0,0.3-0.2,0.5-0.5,0.5
		c-0.3,0-0.5-0.2-0.5-0.5C3.1,3.3,3.3,3.1,3.6,3.1L3.6,3.1z M5.1,3.5L5.1,3.5c0.1,0,0.1,0.1,0.1,0.1c0,0.1-0.1,0.1-0.1,0.1
		C5,3.8,5,3.7,5,3.6C5,3.6,5,3.5,5.1,3.5L5.1,3.5z M5.1,3.1L5.1,3.1c0.3,0,0.5,0.2,0.5,0.5c0,0.3-0.2,0.5-0.5,0.5
		c-0.3,0-0.5-0.2-0.5-0.5C4.5,3.3,4.8,3.1,5.1,3.1L5.1,3.1z M6.5,3.5L6.5,3.5c0.1,0,0.2,0.1,0.2,0.1c0,0.1-0.1,0.1-0.2,0.1
		c-0.1,0-0.1-0.1-0.1-0.1C6.4,3.6,6.4,3.5,6.5,3.5L6.5,3.5z M6.5,3.1L6.5,3.1C6.8,3.1,7,3.3,7,3.6c0,0.3-0.2,0.5-0.5,0.5
		C6.2,4.1,6,3.9,6,3.6C6,3.3,6.2,3.1,6.5,3.1L6.5,3.1z"/>
</g>
</svg>
