<?xml version="1.0" encoding="utf-8"?>
<!-- Generator: Adobe Illustrator 20.1.0, SVG Export Plug-In . SVG Version: 6.00 Build 0)  -->
<svg version="1.1" id="Layer_1" xmlns="http://www.w3.org/2000/svg" xmlns:xlink="http://www.w3.org/1999/xlink" x="0px" y="0px"
	 viewBox="0 0 59 48.3" style="enable-background:new 0 0 59 48.3;" xml:space="preserve">
<style type="text/css">
	.st0{fill:#212221;stroke:#FFFFFF;stroke-miterlimit:10;}
	.st1{fill:#212221;stroke:#FFFFFF;stroke-width:0.5;stroke-miterlimit:10;}
	.st2{fill:#FFFFFF;stroke:#212221;stroke-miterlimit:10;}
</style>
<g>
	<path class="st0" d="M48,2.6H10.9c-1.5,0-2.7,1.2-2.7,2.7v37.1c0,1.5,1.2,2.6,2.7,2.6H48c1.5,0,2.7-1.2,2.7-2.6V5.2
		C50.7,3.8,49.5,2.6,48,2.6 M41.4,5.2c0.7,0,1.3,0.6,1.3,1.3c0,0.7-0.6,1.3-1.3,1.3c-0.7,0-1.3-0.6-1.3-1.3
		C40.1,5.8,40.7,5.2,41.4,5.2 M17.6,5.2h18.6c0.7,0,1.3,0.6,1.3,1.3c0,0.7-0.6,1.3-1.3,1.3H17.6c-0.7,0-1.3-0.6-1.3-1.3
		C16.2,5.8,16.8,5.2,17.6,5.2 M12.3,5.2c0.7,0,1.3,0.6,1.3,1.3c0,0.7-0.6,1.3-1.3,1.3c-0.7,0-1.3-0.6-1.3-1.3
		C10.9,5.8,11.5,5.2,12.3,5.2 M48,39.7c0,1.5-1.2,2.7-2.7,2.7H13.6c-1.5,0-2.7-1.2-2.7-2.7V13.2c0-1.5,1.2-2.7,2.7-2.7h31.8
		c1.5,0,2.7,1.2,2.7,2.7V39.7z M46.7,7.9c-0.7,0-1.3-0.6-1.3-1.3c0-0.7,0.6-1.3,1.3-1.3c0.7,0,1.3,0.6,1.3,1.3
		C48,7.3,47.4,7.9,46.7,7.9"/>
	<rect x="28.6" y="15.5" class="st1" width="15.9" height="1.4"/>
	<rect x="28.6" y="19" class="st1" width="15.9" height="1.4"/>
	<rect x="28.6" y="22.4" class="st1" width="15.9" height="1.4"/>
	<rect x="15.2" y="30.2" class="st1" width="29.3" height="1.4"/>
	<rect x="15.2" y="34.4" class="st1" width="29.3" height="1.4"/>
	<rect x="15.2" y="15.5" class="st2" width="9.5" height="9.5"/>
</g>
</svg>
