<?xml version="1.0" encoding="utf-8"?>
<!-- Generator: Adobe Illustrator 21.0.0, SVG Export Plug-In . SVG Version: 6.00 Build 0)  -->
<svg version="1.1" id="Layer_1" xmlns="http://www.w3.org/2000/svg" xmlns:xlink="http://www.w3.org/1999/xlink" x="0px" y="0px"
	 viewBox="0 0 18 16" style="enable-background:new 0 0 18 16;" xml:space="preserve">
<style type="text/css">
	.st0{fill-rule:evenodd;clip-rule:evenodd;fill:#212221;}
</style>
<g>
	<path class="st0" d="M11.3,4.2L10.1,3v1.2H11.3z M13.9,7.1L13.9,7.1l0.3-0.2l-1.3-1.3l-0.2,0.3L13.9,7.1z M13.7,7.4L13.7,7.4
		l-1.3-1.3l-4,4.1l1.2,1.2L13.7,7.4z M12.4,5.6L12.4,5.6l0.5-0.5l1.8,1.7l-0.5,0.5l0,0l-0.1,0.1l-2.1,2.1v4.1H3.3V2.3h0.2h6.4l0,0
		c0,0,0.1,0,0.1,0.1l0.4,0.4l1.6,1.4v0.2v0v1.7C12.1,5.9,12.3,5.7,12.4,5.6L12.4,5.6z M8.7,11.8L8.7,11.8L8,11.1l-0.1,0.7L8.7,11.8z
		 M8,10.6L8,10.6L9.5,12l-1.9,0.2l0.2-1.9L8,10.6z M11.6,10L11.6,10l-1.9,1.9l-1.8-1.7c1.2-1.2,2.5-2.5,3.7-3.7V4.6H9.9
		c-0.1,0-0.2-0.1-0.2-0.2V2.7H3.6v10.6h7.9V10z"/>
</g>
</svg>
