<?xml version="1.0" encoding="utf-8"?>
<!-- Generator: Adobe Illustrator 20.1.0, SVG Export Plug-In . SVG Version: 6.00 Build 0)  -->
<svg version="1.1" id="Layer_1" xmlns="http://www.w3.org/2000/svg" xmlns:xlink="http://www.w3.org/1999/xlink" x="0px" y="0px"
	 viewBox="0 0 59 48.3" style="enable-background:new 0 0 59 48.3;" xml:space="preserve">
<style type="text/css">
	.st0{fill:#212221;stroke:#FFFFFF;stroke-width:0.7;stroke-miterlimit:10;}
</style>
<path class="st0" d="M52.3,17.4h-2v-5.6h-1.6V8.6H26.6l-2.8-4H8.8c-1.2,0-2.2,1-2.2,2.2v34.7h0c0,0.4,0.1,0.9,0.4,1.3
	c0.4,0.5,1,0.8,1.6,0.8h35.6c0.9,0,1.7-0.6,1.9-1.4l8.1-22.3v-0.1C54.3,18.4,53.5,17.4,52.3,17.4 M48.8,17.4h-6.4v-0.8
	c0-0.4-0.4-0.8-0.8-0.8c-0.4,0-0.8,0.4-0.8,0.8v0.8h-4v-0.8c0-0.4-0.4-0.8-0.8-0.8c-0.4,0-0.8,0.4-0.8,0.8v0.8h-4v-0.8
	c0-0.4-0.4-0.8-0.8-0.8c-0.4,0-0.8,0.4-0.8,0.8v0.8h-4v-0.8c0-0.4-0.4-0.8-0.8-0.8c-0.4,0-0.8,0.4-0.8,0.8v0.8h-4v-0.8
	c0-0.4-0.4-0.8-0.8-0.8c-0.4,0-0.8,0.4-0.8,0.8v0.8h-1.8c-0.1,0-0.2,0-0.3,0c-0.4,0.1-0.8,0.3-1,0.5v-4.5h33.4V17.4z M10.6,30.3
	V18.2h4.5c-0.1,0.2-0.3,0.4-0.3,0.6l-0.3,0.7L10.6,30.3z M13.8,16.6h-2.1l0.5-0.5l1.6-1.6V16.6z M47.2,10.2v1.6H14.3l-2.1,2.1v-3.6
	h15.5H47.2z M8.2,6.8c0-0.3,0.3-0.6,0.6-0.6h14.1l1.7,2.4h-14v6.8L9,17.1v17.6l-0.8,2.2V6.8z M44.7,41.7c-0.1,0.2-0.2,0.3-0.4,0.3
	H8.7c-0.2,0-0.3-0.1-0.4-0.2c0-0.1-0.1-0.2-0.1-0.3L9,39.3v0l7.3-20l0-0.1c0.1-0.2,0.2-0.3,0.4-0.3h33.6h2c0.3,0,0.4,0.4,0.4,0.7
	L44.7,41.7z"/>
</svg>
